<svg width="70" height="53" viewBox="0 0 70 53" fill="none" xmlns="http://www.w3.org/2000/svg">
<g clip-path="url(#clip0_109_491)">
<path d="M6.854 0.196107C7.03804 0.146097 7.18419 0.0744603 7.33033 0.0731087C8.19368 0.0649989 9.05703 0.0771635 9.92038 0.0744603C10.1653 0.0744603 10.4102 0.0379664 10.6552 0.0433729C11.3575 0.0595924 12.0585 0.102844 12.7608 0.108251C13.2628 0.112306 13.7662 0.060944 14.2696 0.0528343C14.57 0.0474277 14.8704 0.0839217 15.1709 0.0906798C15.7148 0.101493 16.2588 0.120416 16.8015 0.108251C17.9896 0.0839217 19.1777 0.0230985 20.3658 0.0136371C21.4741 0.00417568 22.5838 0.050131 23.692 0.0541859C24.3619 0.0568891 25.0317 0.0217468 25.7029 0.017692C26.6055 0.0122854 27.5095 0.0203952 28.412 0.0258017C29.0859 0.0298566 29.7598 0.050131 30.4337 0.0487794C31.0752 0.0487794 31.7166 0.0136371 32.3567 0.0217468C33.2403 0.0312082 34.124 0.0798668 35.0076 0.0866249C35.4934 0.0906798 35.9779 0.0433729 36.4637 0.0190436C36.5422 0.0149887 36.6206 0.0109338 36.6991 0.0136371C37.1903 0.0298566 37.6802 0.0568891 38.1714 0.0636473C39.0889 0.0744603 40.0077 0.0798668 40.9252 0.0758119C41.4381 0.0744603 41.9496 0.0474277 42.4625 0.0366147C42.6749 0.0325599 42.8874 0.0433729 43.0998 0.0447245C43.2771 0.0447245 43.4557 0.0487794 43.633 0.0406696C43.79 0.0339115 43.9469 0.000120799 44.1026 0.000120799C44.7751 0.000120799 45.4463 -0.00393408 46.1188 0.0149887C46.9037 0.0366147 47.6886 0.0987896 48.4734 0.105548C49.0743 0.110954 49.6764 0.0568891 50.2773 0.028505C50.3219 0.0258017 50.3666 0.0122854 50.4112 0.0136371C51.3544 0.028505 52.2963 0.0528343 53.2395 0.0568891C53.8863 0.0595924 54.5345 0.0352631 55.1813 0.0244501C55.5074 0.0190436 55.8349 0.00823056 56.161 0.00823056C56.7443 0.00823056 57.3275 0.00823056 57.9094 0.0203952C58.2098 0.0271533 58.5102 0.0704054 58.812 0.0785152C58.9541 0.08257 59.1016 0.00687893 59.2382 0.0271533C59.4169 0.0541859 59.6456 0.0906798 59.7443 0.212326C59.8756 0.371818 59.7498 0.54753 59.5901 0.694857C59.0501 1.18955 58.5237 1.69912 58.0014 2.21273C57.6374 2.57092 57.2991 2.95478 56.9324 3.31026C56.433 3.79414 55.9107 4.25639 55.41 4.74028C55.1245 5.01601 54.8714 5.32418 54.594 5.60802C54.1637 6.0473 53.7253 6.48117 53.2868 6.91369C52.6413 7.55166 51.9891 8.18287 51.3463 8.82489C50.4572 9.71427 49.579 10.6144 48.6886 11.5011C48.2366 11.9526 47.7603 12.3797 47.307 12.8284C46.4328 13.6948 45.5681 14.5734 44.6953 15.4411C43.7467 16.3859 42.7886 17.3226 41.8413 18.2701C41.388 18.7242 40.9482 19.1932 40.4692 19.6893C40.5883 19.7325 40.6546 19.7744 40.7236 19.7785C41.8116 19.8339 42.8901 20.042 43.9916 19.8717C44.4963 19.7933 45.0241 19.8528 45.541 19.8744C45.6628 19.8799 45.7805 19.9853 45.8996 20.0448C45.7765 20.161 45.6709 20.3286 45.5248 20.3786C45.3529 20.4381 45.1459 20.3935 44.9551 20.3962C44.3678 20.4043 44.0714 20.8652 44.3759 21.3639C44.721 21.9316 45.1202 22.4669 45.5058 23.0089C45.809 23.4346 46.1297 23.8469 46.4355 24.2713C46.5952 24.4916 46.7048 24.4375 46.8428 24.2443C47.1513 23.8158 47.4883 23.4076 47.7914 22.9764C48.1094 22.5236 48.4112 22.0587 48.6981 21.5856C48.8496 21.3369 48.717 20.8625 48.4545 20.7125C48.2177 20.5786 47.947 20.5057 47.7021 20.384C47.5817 20.3245 47.4869 20.2151 47.3814 20.1272C47.4978 20.0664 47.6155 19.9501 47.7305 19.9528C48.6182 19.9731 49.5059 20.0353 50.3936 20.0475C50.9539 20.0556 51.5141 19.9853 52.0757 19.9812C52.2503 19.9799 52.5656 19.8758 52.5683 20.165C52.571 20.4597 52.2611 20.3948 52.0581 20.3975C51.3896 20.407 50.851 20.6962 50.4072 21.172C49.9105 21.7045 49.4166 22.2398 48.9444 22.794C48.4626 23.3589 48.0066 23.9428 47.5478 24.5267C47.4342 24.6714 47.3462 24.8403 47.2677 25.0079C47.2366 25.0755 47.2312 25.185 47.265 25.2472C47.675 26.0095 48.0066 26.811 48.5641 27.4949C48.9958 28.0234 49.3151 28.6452 49.7455 29.175C50.1487 29.671 50.6305 30.1036 51.0851 30.5577C51.6494 31.1227 52.3923 31.3187 53.1204 31.5566C53.253 31.5998 53.3261 31.8296 53.4262 31.9729C53.3003 32.0377 53.1718 32.1621 53.0473 32.1594C51.1677 32.1148 49.2894 32.0553 47.4112 31.9918C47.3354 31.9891 47.2014 31.9039 47.2014 31.858C47.2014 31.7539 47.2461 31.5849 47.3151 31.5593C47.6777 31.4268 48.0485 31.3065 48.4274 31.2281C48.7048 31.1713 48.782 31.0092 48.6954 30.7969C48.5249 30.3793 48.3895 29.9549 48.0959 29.5791C47.5289 28.856 47.0377 28.0734 46.514 27.3165C46.3773 27.1178 46.2352 26.9232 46.0647 26.6839C45.9348 26.8272 45.8035 26.9421 45.7102 27.0813C45.3204 27.6639 44.9334 28.2491 44.5613 28.8425C44.2325 29.3683 43.9199 29.9049 43.6073 30.4415C43.4462 30.7172 43.5139 30.9578 43.8143 31.0659C44.043 31.1484 44.2961 31.1619 44.5342 31.22C44.7683 31.2768 45.0241 31.3133 45.2217 31.4349C45.338 31.5065 45.4436 31.7512 45.4071 31.8755C45.3705 31.9985 45.1513 32.1418 45.0106 32.1445C44.6533 32.1499 44.2947 32.0567 43.9361 32.0486C42.8211 32.0202 41.7047 32.0148 40.5883 31.9904C40.4529 31.9877 40.2824 31.9607 40.1958 31.8755C40.0916 31.7742 40.0619 31.5985 39.9996 31.4552C40.1647 31.3836 40.323 31.2822 40.4949 31.2484C40.8927 31.17 41.3231 31.1903 41.6884 31.0416C41.9645 30.9294 42.1756 30.6334 42.3894 30.3955C42.7182 30.0279 43.0362 29.6494 43.3353 29.2588C43.6127 28.8966 43.8549 28.51 44.1201 28.1383C44.4612 27.6598 44.7995 27.18 45.154 26.711C45.403 26.3825 45.3827 26.2933 45.1662 25.9473C44.6777 25.1674 44.2311 24.3618 43.7521 23.5752C43.4977 23.1575 43.2243 22.7494 42.9374 22.3533C42.7385 22.079 42.4963 21.8384 42.2825 21.5748C41.8251 21.0112 41.1728 20.7936 40.5233 20.5651C40.4299 20.5327 40.3487 20.4638 40.254 20.4313C39.9563 20.3286 39.7033 20.3529 39.4583 20.603C38.1051 21.9789 36.7397 23.3414 35.3743 24.7052C35.013 25.0674 34.6422 25.4188 34.2728 25.7743C34.0076 26.0298 34.1023 27.253 34.3946 27.4706C34.5083 27.5557 34.5881 27.6855 34.6896 27.7869C35.2052 28.2978 35.7275 28.8033 36.2404 29.3183C36.8209 29.9022 37.3866 30.5023 37.9711 31.0821C38.5422 31.6498 39.139 32.1905 39.7073 32.7609C40.3569 33.4123 40.9834 34.0855 41.6275 34.7423C41.9144 35.0343 42.2284 35.3019 42.5152 35.5939C42.9198 36.0048 43.3028 36.44 43.7128 36.8455C44.177 37.3037 44.6736 37.7294 45.1337 38.1903C45.9538 39.0121 46.7521 39.8542 47.5722 40.6773C48.0675 41.1747 48.5912 41.6437 49.0864 42.1398C50.0188 43.0724 50.9363 44.0213 51.87 44.9525C52.7564 45.8365 53.6603 46.7029 54.5507 47.5828C55.1137 48.141 55.6603 48.7155 56.2246 49.2737C56.8363 49.8792 57.4615 50.4699 58.0745 51.0754C58.5427 51.539 59.0041 52.0094 59.4561 52.4879C59.5265 52.5635 59.5955 52.7487 59.5576 52.796C59.4791 52.8947 59.3276 52.9839 59.2044 52.988C58.6307 53.0069 58.0555 52.9934 57.4804 52.9934C55.8917 52.9934 54.3031 52.9961 52.7144 52.9907C50.9458 52.9853 49.1785 52.9623 47.4098 52.9636C44.9754 52.9663 42.5423 52.9907 40.1079 52.992C38.2269 52.992 36.3446 52.9677 34.4636 52.9623C33.4839 52.9596 32.5028 52.9853 31.5231 52.9839C29.7774 52.9812 28.0318 52.9609 26.2861 52.9623C23.8761 52.965 21.4646 52.9839 19.0546 52.9893C17.0491 52.9947 15.0437 52.9907 13.0368 52.9907C11.122 52.9907 9.20724 52.9947 7.29244 52.9866C7.17472 52.9866 7.05699 52.9015 6.93926 52.8555C7.0015 52.6974 7.02451 52.5014 7.13412 52.3892C7.83779 51.6647 8.55499 50.9551 9.27761 50.2496C9.79589 49.744 10.3358 49.2602 10.8527 48.752C11.1789 48.4316 11.4712 48.0802 11.7932 47.7558C12.1099 47.4368 12.4509 47.1435 12.7675 46.8245C13.21 46.3785 13.6322 45.9108 14.0775 45.4662C14.6296 44.916 15.1939 44.3781 15.7554 43.8388C16.0207 43.5833 16.3008 43.3441 16.5633 43.0859C17.1831 42.4736 17.7961 41.8533 18.4118 41.2356C18.9138 40.7314 19.4145 40.2245 19.9179 39.7231C20.7474 38.8972 21.5864 38.0809 22.4105 37.2483C23.01 36.6427 23.5797 36.0048 24.186 35.4073C24.7191 34.8829 25.2956 34.4031 25.8342 33.8868C26.2361 33.5016 26.6001 33.0785 26.9966 32.6879C27.7557 31.9391 28.5338 31.2105 29.2889 30.4577C29.9209 29.8278 30.5258 29.1709 31.155 28.5384C31.3729 28.3194 31.6665 28.1707 31.8573 27.9355C32.0725 27.672 32.4121 27.4557 32.3648 27.0367C32.3648 27.0259 32.3621 27.0137 32.3648 27.0029C32.6449 25.7986 31.7734 25.2066 31.0549 24.5267C30.6259 24.1226 30.2213 23.6941 29.8004 23.2805C29.201 22.6912 28.5934 22.11 27.998 21.518C27.4513 20.9747 26.9222 20.4137 26.3755 19.8704C25.665 19.1648 24.9356 18.4769 24.2293 17.7673C23.6081 17.1442 23.0114 16.4954 22.393 15.8696C21.7177 15.1843 21.0303 14.5098 20.3482 13.8313C19.7704 13.2569 19.1926 12.6838 18.6161 12.1107C17.7298 11.2308 16.8434 10.3509 15.9584 9.46962C15.3278 8.84247 14.7053 8.2072 14.072 7.58275C12.8528 6.3798 11.6241 5.18767 10.4102 3.97931C9.77153 3.34405 9.16394 2.67769 8.52928 2.03973C8.08272 1.59099 7.60233 1.17333 7.15577 0.723241C7.02992 0.596188 6.97038 0.402906 6.85536 0.193403L6.854 0.196107ZM59.517 0.409664C59.5048 0.371818 59.4913 0.332621 59.4791 0.294776C59.3519 0.282611 59.2247 0.260985 59.0975 0.260985C57.1814 0.260985 55.2652 0.269095 53.3491 0.269095C47.2948 0.269095 41.2419 0.262336 35.1876 0.262336C32.1212 0.262336 29.0548 0.273149 25.9884 0.274501C23.2049 0.275853 20.42 0.269095 17.6364 0.269095C15.7203 0.269095 13.8041 0.278556 11.888 0.277204C10.4563 0.277204 9.02456 0.26504 7.59286 0.263688C7.49949 0.263688 7.40611 0.308292 7.31274 0.332621C7.35063 0.429938 7.36281 0.550233 7.43047 0.619166C7.8432 1.04493 8.26946 1.45853 8.68896 1.87888C9.05568 2.24517 9.4197 2.61417 9.78236 2.98451C9.98669 3.19266 10.1829 3.40892 10.3913 3.61302C10.8609 4.07528 11.3358 4.53213 11.8054 4.99303C12.1491 5.32959 12.4942 5.66614 12.8325 6.0081C13.1478 6.32709 13.455 6.65688 13.7676 6.97857C14.0409 7.25836 14.3116 7.54085 14.5944 7.81117C14.8853 8.08826 15.1993 8.34236 15.4834 8.62485C15.8204 8.96141 16.1276 9.32905 16.4659 9.66561C16.7649 9.96432 17.1005 10.2265 17.3982 10.5266C17.7447 10.8753 18.0546 11.2592 18.4037 11.6038C18.7799 11.9742 19.198 12.3026 19.5742 12.6716C19.9924 13.0812 20.378 13.5245 20.7907 13.9395C21.1223 14.2733 21.4863 14.5747 21.8151 14.9113C22.2752 15.3843 22.7083 15.8831 23.1656 16.3575C23.5094 16.7157 23.8774 17.0495 24.2266 17.4023C24.4796 17.6578 24.7097 17.9389 24.9708 18.1863C25.4242 18.6161 25.9045 19.0175 26.3525 19.4541C26.8288 19.9177 27.2753 20.4097 27.7409 20.8855C27.9736 21.122 28.2226 21.3423 28.4526 21.5802C28.6692 21.8059 28.8586 22.0573 29.0819 22.2763C29.4148 22.602 29.7761 22.9007 30.109 23.2265C30.2971 23.4117 30.4419 23.6414 30.6273 23.8307C31.0643 24.2767 31.5109 24.7133 31.9629 25.1458C32.0373 25.2174 32.1537 25.2472 32.2498 25.2958C32.2863 25.1999 32.3553 25.1039 32.3567 25.0079C32.358 24.0956 32.3675 23.1832 32.335 22.2722C32.3201 21.8505 32.2579 21.4207 32.1469 21.0139C32.0278 20.5732 31.8073 20.1867 31.2349 20.211C31.1171 20.2164 30.9899 20.1123 30.8749 20.0448C30.837 20.0218 30.7991 19.942 30.8126 19.9082C30.8329 19.8582 30.8952 19.7974 30.9466 19.7893C31.3905 19.7285 31.8343 19.6541 32.2809 19.6298C32.7762 19.6028 33.2741 19.6041 33.7681 19.6271C34.3608 19.6555 34.9521 19.7163 35.5421 19.7798C35.6382 19.7906 35.7735 19.869 35.7992 19.9474C35.8209 20.0123 35.7289 20.161 35.6504 20.2015C35.4785 20.2921 35.2877 20.3718 35.0969 20.3975C34.6016 20.4638 34.1591 20.9152 34.1551 21.4167C34.1443 22.6331 34.1416 23.8496 34.1388 25.066C34.1388 25.1769 34.1686 25.2891 34.1835 25.3999C34.2214 25.4175 34.2593 25.4337 34.2972 25.4513C42.7047 17.1023 51.1122 8.75326 59.5197 0.405609L59.517 0.409664ZM34.308 27.7031L34.1375 27.7625C34.1375 28.0139 34.1253 28.2653 34.1402 28.5154C34.1821 29.2385 34.0184 29.9752 34.2985 30.6834C34.4758 31.1335 34.7085 31.4984 35.2593 31.5106C35.3824 31.5133 35.5056 31.5471 35.6287 31.5512C35.8425 31.5593 36.0388 31.6174 36.0009 31.8661C35.99 31.935 35.7573 32.0121 35.626 32.0134C34.3635 32.0283 33.1009 32.0283 31.8384 32.031C31.6246 32.031 31.4094 32.035 31.197 32.0175C31.1185 32.0107 30.9994 31.9648 30.9818 31.9093C30.9615 31.8472 31.0143 31.7255 31.0725 31.6823C31.1645 31.616 31.2863 31.5741 31.3999 31.5606C31.7193 31.5214 32.0197 31.4146 32.1239 31.0997C32.2362 30.7645 32.2985 30.405 32.3228 30.0522C32.3567 29.5359 32.3458 29.0169 32.3364 28.4992C32.3337 28.3072 32.2822 28.1167 32.2525 27.9261C32.1117 28.0383 31.9615 28.141 31.833 28.2653C31.1496 28.9236 30.4649 29.5818 29.791 30.2522C29.0954 30.9443 28.4188 31.6552 27.7233 32.3473C27.182 32.8852 26.6258 33.4096 26.075 33.9368C25.6488 34.345 25.2076 34.741 24.7922 35.16C24.3335 35.6223 23.9045 36.1129 23.4471 36.5765C23.1792 36.8482 22.8679 37.078 22.5986 37.3483C22.19 37.7578 21.8124 38.1985 21.4024 38.6066C20.5891 39.4136 19.7528 40.1989 18.9423 41.0085C18.5011 41.4491 18.106 41.9384 17.6621 42.375C17.2183 42.8116 16.723 43.1954 16.2778 43.6293C15.4266 44.4578 14.593 45.304 13.7527 46.1447C12.5849 47.3152 11.4238 48.4911 10.2492 49.6548C9.31415 50.5821 8.36284 51.4944 7.42371 52.4189C7.36958 52.473 7.36011 52.573 7.32898 52.65C7.398 52.6771 7.46701 52.7244 7.53602 52.7257C8.13279 52.7366 8.7282 52.7379 9.32497 52.7447C10.0557 52.7514 10.7878 52.769 11.5185 52.7676C12.5104 52.7649 13.501 52.742 14.4929 52.7406C15.5051 52.7406 16.5159 52.7636 17.5282 52.7636C18.6202 52.7636 19.7109 52.7393 20.8029 52.7393C21.7596 52.7393 22.7177 52.7663 23.6744 52.7649C24.7435 52.7636 25.8125 52.7311 26.8816 52.7325C27.9384 52.7325 28.9953 52.769 30.0521 52.7703C30.9737 52.7717 31.8966 52.7352 32.8181 52.7379C34.4487 52.7406 36.0794 52.769 37.7086 52.7703C38.8656 52.7703 40.024 52.7433 41.181 52.7325C41.8752 52.7257 42.5707 52.7257 43.2649 52.7271C45.0336 52.7311 46.8022 52.7339 48.5709 52.7433C49.5492 52.7474 50.5276 52.7663 51.5073 52.7703C53.0689 52.7771 54.6319 52.7839 56.1935 52.7785C57.1056 52.7758 58.0163 52.7541 58.927 52.7338C58.9974 52.7325 59.1192 52.6906 59.1246 52.6541C59.1354 52.5798 59.1043 52.4757 59.0515 52.4216C58.8296 52.1932 58.5901 51.9837 58.3654 51.758C57.6942 51.0849 57.0312 50.4023 56.3559 49.7346C55.6008 48.9885 54.8241 48.264 54.0771 47.5085C53.506 46.9327 52.9823 46.3096 52.4099 45.7351C51.9485 45.2702 51.4316 44.8593 50.9647 44.3984C49.8077 43.2549 48.6629 42.0979 47.5167 40.9423C47.1324 40.5543 46.767 40.1448 46.3787 39.7623C45.6872 39.0811 44.9781 38.4174 44.2893 37.7335C43.6059 37.055 42.9442 36.3548 42.2635 35.6723C41.2676 34.6748 40.2608 33.6881 39.2648 32.6906C38.7844 32.2107 38.327 31.7079 37.8439 31.2308C37.1281 30.5226 36.3919 29.8319 35.6761 29.1223C35.2092 28.66 34.7627 28.1761 34.3066 27.7017L34.308 27.7031Z" fill="white"/>
<path d="M64.6619 25.7931C64.9962 26.0431 65.2858 26.2229 65.5294 26.4513C65.9313 26.8284 66.2479 27.2501 66.4604 27.7908C66.8122 28.6855 66.7933 29.6601 67.1424 30.5359C67.2547 30.8157 67.6079 31.0401 67.9015 31.1969C68.229 31.3726 68.6187 31.4307 68.9692 31.5686C69.0585 31.6037 69.1032 31.751 69.1681 31.847C69.0883 31.8997 69.0085 31.9957 68.9273 31.997C68.0707 32.0051 67.2127 32.0133 66.3575 31.9862C66.0733 31.9768 65.7526 31.9322 65.5226 31.7862C65.2952 31.6429 65.0896 31.3739 65.0057 31.1185C64.8324 30.5927 64.7445 30.0399 64.6254 29.4965C64.5266 29.0491 64.4224 28.6044 64.3399 28.1544C64.2749 27.8016 64.1545 27.4812 64.011 27.1501C63.7932 26.6446 63.375 26.4378 62.9582 26.1918C62.5185 25.9323 62.0354 26.0404 61.5698 26.0391C60.582 26.035 60.6551 25.9417 60.6943 26.9771C60.7281 27.8502 60.6686 28.7274 60.6537 29.6033C60.651 29.7831 60.6497 29.9642 60.6632 30.144C60.7146 30.8279 61.1111 31.2672 61.7877 31.405C61.9636 31.4415 62.1463 31.474 62.306 31.5496C62.3926 31.5902 62.4373 31.7186 62.5009 31.8065C62.4129 31.8686 62.3249 31.9822 62.2343 31.9849C61.5698 32.0011 60.9041 31.9957 60.2396 31.9957C59.337 31.9957 58.4358 31.9957 57.5332 31.993C57.4547 31.993 57.3573 32.02 57.3005 31.9849C57.1624 31.8997 57.042 31.7848 56.9148 31.6821C57.0325 31.5888 57.1394 31.4361 57.2707 31.4104C57.8417 31.2969 58.3032 31.0157 58.5576 30.5035C58.7119 30.194 58.8025 29.8209 58.8052 29.4749C58.8269 27.4029 58.8296 25.3308 58.8052 23.2601C58.7985 22.6019 58.7105 21.9436 58.628 21.2881C58.563 20.7731 58.1056 20.4055 57.5806 20.396C57.5021 20.3947 57.4141 20.4163 57.3465 20.3893C57.2504 20.3501 57.088 20.2568 57.0961 20.2203C57.1232 20.1041 57.199 19.9311 57.2883 19.9081C57.5576 19.8378 57.8431 19.7986 58.1219 19.7972C59.8919 19.7932 61.6619 19.7743 63.4305 19.8189C64.325 19.8418 65.2452 19.9473 66.007 20.4649C66.4996 20.8002 66.957 21.1854 67.1464 21.8544C67.3169 22.4599 67.3575 23.0506 67.2669 23.6345C67.1952 24.0981 67.0179 24.5779 66.5524 24.855C66.1559 25.0916 65.7783 25.3605 65.3751 25.5822C65.191 25.6836 64.9651 25.7052 64.6592 25.7917L64.6619 25.7931ZM60.4765 23.8724L60.4264 23.8792C60.4819 24.3103 60.5387 24.7428 60.5915 25.1754C60.6158 25.3781 60.7282 25.4416 60.919 25.4078C61.2167 25.3551 61.5144 25.2957 61.8148 25.2565C62.3141 25.1902 62.8175 25.147 63.3155 25.0753C63.509 25.047 63.693 24.9483 63.8865 24.9145C64.1396 24.8699 64.5388 24.5333 64.6213 24.2901C64.7485 23.9116 64.896 23.5399 65.0287 23.1641C65.2262 22.6005 65.2628 22.0477 64.8527 21.553C64.6863 21.3516 64.5036 21.1556 64.3006 20.9921C64.0395 20.7826 63.7621 20.4704 63.4725 20.446C62.5902 20.3717 61.697 20.4055 60.808 20.4203C60.6145 20.423 60.4846 20.5569 60.5563 20.7961C60.5969 20.9326 60.6226 21.0813 60.6158 21.2232C60.5766 22.1072 60.5252 22.9898 60.4792 23.8738L60.4765 23.8724Z" fill="white"/>
<path d="M7.61321 23.2805C7.63351 23.4819 7.6511 23.5684 7.6511 23.6549C7.6511 24.893 7.65652 26.1324 7.63892 27.3705C7.63487 27.6314 7.55367 27.895 7.47925 28.1491C7.45624 28.2261 7.34798 28.3113 7.26544 28.3261C7.20454 28.337 7.08275 28.2559 7.0584 28.191C6.92849 27.826 6.76069 27.4597 6.72145 27.0813C6.6822 26.7082 6.43051 26.4758 6.19234 26.419C5.46837 26.2487 4.7214 26.1757 3.97984 26.0878C3.90135 26.0784 3.72679 26.2311 3.72814 26.3068C3.75385 27.7314 3.55628 29.1655 3.89188 30.5766C3.92029 30.6955 4.00419 30.8199 4.09757 30.901C4.89596 31.6025 5.85539 31.6457 6.82429 31.47C7.60915 31.3281 8.38455 31.1064 9.1437 30.8577C9.42111 30.7658 9.68634 30.532 9.87579 30.2968C10.2168 29.8724 10.4942 29.3953 10.8068 28.9479C10.8487 28.8884 10.9841 28.8168 11.0084 28.8371C11.095 28.906 11.2222 29.0209 11.2114 29.102C11.1343 29.6751 11.0301 30.2454 10.9259 30.8145C10.8677 31.1335 10.8095 31.4525 10.7188 31.7633C10.6904 31.862 10.5713 31.9526 10.4726 32.0093C10.4022 32.0499 10.2966 32.0309 10.2073 32.0309C6.93931 32.0228 3.66995 32.0161 0.401941 32.0026C0.244968 32.0026 0.00950875 32.1053 0.00138947 31.7971C-0.00672981 31.5065 0.155656 31.4106 0.424945 31.3943C0.634693 31.3822 0.840382 31.3213 1.04878 31.2876C1.43444 31.2254 1.48586 30.9064 1.57518 30.6144C1.85123 29.7224 1.7308 28.806 1.73621 27.8977C1.74703 26.2649 1.74839 24.6335 1.76192 23.0007C1.76192 22.8466 1.80522 22.6885 1.85123 22.5398C2.00685 22.0384 1.88777 21.541 1.69561 21.1057C1.59006 20.8679 1.22605 20.7286 0.958111 20.5813C0.786253 20.4867 0.575152 20.4664 0.388408 20.3948C0.319395 20.3678 0.269326 20.2907 0.211138 20.2366C0.272032 20.1826 0.326161 20.1137 0.396528 20.0799C0.452009 20.0515 0.529143 20.0596 0.59545 20.0609C2.3844 20.0758 4.1747 20.0934 5.96365 20.1042C6.48193 20.1069 7.00021 20.0772 7.51714 20.0799C8.26952 20.0839 9.02191 20.088 9.77294 20.1339C9.92044 20.1434 10.1315 20.3177 10.1816 20.461C10.3386 20.9111 10.4401 21.3815 10.5456 21.8478C10.6025 22.0992 10.6525 22.3574 10.6512 22.6128C10.6512 22.7439 10.5294 22.8723 10.4617 23.0034C10.3372 22.9291 10.1789 22.8831 10.095 22.7777C9.71746 22.2992 9.3778 21.7924 8.99484 21.3193C8.55234 20.7719 7.91363 20.58 7.25191 20.5813C6.35473 20.5827 5.45754 20.6719 4.56172 20.7286C4.28566 20.7462 3.92435 20.6854 3.76197 20.8341C3.62123 20.9625 3.70378 21.3382 3.6916 21.6045C3.65371 22.4344 3.59688 23.2643 3.58876 24.0942C3.5847 24.4713 3.66318 24.8525 3.73761 25.2255C3.75385 25.3053 3.90676 25.4093 4.00013 25.412C4.23424 25.4201 4.4697 25.3809 4.70381 25.3512C4.85942 25.3309 5.01775 25.2606 5.16931 25.2742C6.09626 25.3539 6.54012 24.7957 6.85 24.0428C6.91631 23.882 6.97314 23.6995 7.08952 23.5806C7.21131 23.4576 7.39941 23.3995 7.61457 23.2819L7.61321 23.2805Z" fill="white"/>
<path d="M26.9304 27.8962C27.0698 28.6531 26.9642 29.2938 26.9033 29.9331C26.8803 30.1777 26.8384 30.4224 26.8018 30.6657C26.7409 31.0725 26.6854 31.4807 26.6043 31.8821C26.5921 31.9403 26.4513 32.016 26.3729 32.0119C25.6205 31.9808 24.8694 31.9349 24.1171 31.893C24.0047 31.8862 23.8924 31.8632 23.7828 31.87C23.2009 31.9078 22.6204 31.9835 22.0385 31.9903C20.167 32.0092 18.2969 32.0051 16.4254 32.0078C16.3469 32.0078 16.2508 32.0281 16.1926 31.9916C16.1047 31.9362 16.0194 31.847 15.9842 31.7537C15.968 31.7132 16.0641 31.5929 16.1331 31.5632C16.2752 31.5023 16.4322 31.478 16.5824 31.4375C16.9017 31.351 17.2441 31.3091 17.5337 31.1644C17.8666 30.9982 17.9789 30.6495 17.9911 30.2859C18.0438 28.7572 18.1034 27.2285 18.1372 25.6998C18.1602 24.6753 18.1372 23.6507 18.148 22.6262C18.1534 22.1315 18.0641 21.6665 17.8219 21.234C17.5621 20.7691 17.1724 20.4933 16.6433 20.3866C16.42 20.3406 16.2143 20.2014 16.0005 20.1054L16.0208 19.9459C16.2738 19.9027 16.5282 19.8243 16.7813 19.8229C18.2576 19.8081 19.7326 19.8067 21.209 19.8135C21.4187 19.8135 21.638 19.8581 21.8342 19.9338C21.9316 19.9716 21.983 20.1257 22.0548 20.2257C21.96 20.2825 21.8599 20.3974 21.7733 20.3879C21.278 20.3338 20.799 20.4447 20.4661 20.7745C20.2117 21.0272 19.9735 21.4368 19.9681 21.7801C19.9302 24.5712 19.9424 27.365 19.9627 30.1561C19.964 30.444 20.0358 30.809 20.2198 30.9968C20.4309 31.2117 20.7949 31.3307 21.1089 31.3753C21.5514 31.4375 22.0169 31.4496 22.4567 31.3807C22.9804 31.2996 23.4905 31.1252 23.9993 30.9657C24.6583 30.7589 25.1414 30.2926 25.5636 29.7804C25.8695 29.4114 26.0846 28.9694 26.3593 28.572C26.5095 28.3544 26.6976 28.1638 26.9277 27.8935L26.9304 27.8962Z" fill="white"/>
<path d="M34.4772 13.4812C34.4772 13.7596 34.488 13.9934 34.4704 14.2259C34.465 14.2894 34.377 14.3476 34.3269 14.407C34.2877 14.3476 34.2417 14.2921 34.2119 14.2286C34.1402 14.0786 34.1023 13.8137 34.0062 13.792C33.741 13.7326 33.4474 13.742 33.1754 13.7866C33.0184 13.8123 33.0238 14.4124 33.1794 14.4719C33.3323 14.53 33.4893 14.5449 33.5502 14.3192C33.5664 14.257 33.6598 14.2164 33.7193 14.1651C33.7478 14.2286 33.7992 14.2894 33.8019 14.3543C33.8114 14.6179 33.806 14.8814 33.806 15.145L33.6882 15.1775C33.6382 15.0991 33.6003 15.0071 33.534 14.9436C33.4568 14.8706 33.3567 14.7774 33.266 14.776C33.2038 14.776 33.1036 14.9058 33.0833 14.9936C33.0536 15.1207 33.0766 15.2613 33.0833 15.3964C33.086 15.4397 33.1009 15.5167 33.1212 15.5194C33.3743 15.5654 33.6327 15.6397 33.8844 15.6221C33.9995 15.614 34.1118 15.4275 34.2052 15.3059C34.2701 15.2234 34.3012 15.1139 34.3472 15.0166C34.3933 15.1247 34.4487 15.2302 34.4799 15.3424C34.5002 15.4153 34.4771 15.4991 34.4853 15.5775C34.511 15.8357 34.419 15.9357 34.1416 15.9236C33.6355 15.9006 33.128 15.9236 32.6205 15.9114C32.5272 15.91 32.4352 15.8452 32.3431 15.8087C32.404 15.7465 32.4771 15.6924 32.5231 15.6208C32.5962 15.5059 32.699 15.3829 32.7058 15.2572C32.7302 14.8652 32.7342 14.4692 32.7058 14.0772C32.6977 13.961 32.5556 13.8542 32.4703 13.7461C32.4284 13.6934 32.3756 13.6488 32.3282 13.6001C32.3851 13.5596 32.4406 13.4839 32.4974 13.4839C33.1388 13.4758 33.7802 13.4785 34.4799 13.4785L34.4772 13.4812Z" fill="white"/>
<path d="M40.7953 9.03564C40.7953 9.30597 40.8048 9.53034 40.7899 9.75336C40.7845 9.82364 40.7155 9.88987 40.6749 9.95881C40.6275 9.89663 40.5666 9.84122 40.5369 9.77228C40.476 9.62901 40.453 9.36544 40.3785 9.35193C40.0971 9.30056 39.7953 9.29786 39.5165 9.35598C39.4516 9.3695 39.4326 9.68983 39.4299 9.8696C39.4299 9.93177 39.572 10.0602 39.6032 10.048C39.706 10.0048 39.7872 9.9115 39.8779 9.83851C39.9252 9.79931 39.9739 9.76147 40.0213 9.72362C40.0578 9.7831 40.1201 9.83986 40.1241 9.90069C40.1377 10.1021 40.135 10.3048 40.1241 10.5076C40.1214 10.5589 40.0632 10.6076 40.0321 10.6589C39.9807 10.6238 39.8941 10.5954 39.886 10.5522C39.8521 10.367 39.729 10.271 39.5815 10.3467C39.4922 10.3927 39.4272 10.5711 39.4272 10.6914C39.4272 10.8779 39.3136 11.155 39.6654 11.1793C40.3352 11.2266 40.4706 11.155 40.5409 10.7576C40.5518 10.6914 40.6316 10.6373 40.679 10.5792C40.7209 10.6346 40.7899 10.6846 40.798 10.7455C40.8914 11.3537 40.8332 11.4213 40.2256 11.4213C39.798 11.4213 39.3704 11.424 38.9428 11.4145C38.8521 11.4132 38.7642 11.3659 38.6735 11.3402C38.7344 11.278 38.8075 11.2239 38.8548 11.1523C38.936 11.0293 39.0483 10.8995 39.0619 10.7644C39.0943 10.4413 39.0876 10.1129 39.0727 9.78715C39.0632 9.57224 39.0849 9.31408 38.7493 9.29381C38.7141 9.2911 38.6857 9.19784 38.6532 9.14648C38.7127 9.10998 38.7723 9.0424 38.8318 9.0424C39.4719 9.03429 40.1106 9.037 40.7953 9.037V9.03564Z" fill="white"/>
<path d="M28.481 9.03433C28.481 9.31006 28.4892 9.55471 28.4743 9.798C28.4716 9.85071 28.3823 9.89667 28.3335 9.94668C28.297 9.89667 28.2524 9.85071 28.2253 9.7953C28.1522 9.64256 28.1143 9.38035 28.0115 9.35196C27.7611 9.28438 27.4729 9.28843 27.2171 9.34385C27.1454 9.35872 27.1062 9.64662 27.1008 9.81151C27.0981 9.89126 27.1928 10.0197 27.2713 10.0453C27.431 10.0981 27.5527 10.0332 27.5663 9.83044C27.569 9.79124 27.6583 9.7561 27.7084 9.7196C27.7462 9.77772 27.8139 9.83314 27.818 9.89261C27.8329 10.094 27.8301 10.2981 27.8193 10.4995C27.8166 10.5549 27.7611 10.6063 27.73 10.6603C27.6718 10.6211 27.5676 10.586 27.5636 10.5427C27.546 10.3359 27.4093 10.2751 27.2645 10.3414C27.1752 10.3819 27.1008 10.5387 27.0913 10.6495C27.0656 10.928 27.117 11.1753 27.4932 11.1672C27.5419 11.1672 27.5906 11.2578 27.6407 11.3078C27.5906 11.3429 27.5419 11.4078 27.4905 11.4091C27.1644 11.42 26.8369 11.42 26.5108 11.4118C26.4593 11.4118 26.4093 11.3483 26.3592 11.3132C26.3957 11.2632 26.4255 11.1794 26.4702 11.1713C26.7124 11.1239 26.7246 10.9428 26.7259 10.759C26.7313 10.4211 26.7286 10.0832 26.7259 9.74528C26.7246 9.53173 26.7516 9.29925 26.4269 9.28438C26.393 9.28303 26.3646 9.18841 26.3335 9.13705C26.3971 9.10191 26.458 9.03838 26.5229 9.03703C26.8721 9.02757 27.2212 9.03163 27.5717 9.03163C27.8626 9.03163 28.1549 9.03163 28.4824 9.03163L28.481 9.03433Z" fill="white"/>
<path d="M34.5123 5.07685C34.5556 5.89188 34.1753 6.26223 33.492 6.2852C32.6963 6.31224 32.3972 5.72563 32.3539 5.0782C32.312 4.45645 32.9074 3.82119 33.4744 3.80767C34.0657 3.7928 34.5096 4.33481 34.5123 5.07685ZM34.2132 5.07955C34.2132 4.55647 33.975 4.21721 33.5907 4.15909C33.2362 4.10638 32.9466 4.25641 32.8641 4.55918C32.7761 4.88222 32.7923 5.25391 32.8519 5.58912C32.8789 5.74185 32.9899 5.9527 33.2768 5.98244C33.8993 6.04461 34.2822 5.6621 34.2132 5.07955V5.07955Z" fill="white"/>
<path d="M44.3516 3.90486C44.6114 3.90486 44.8726 3.92379 45.1283 3.89946C45.3814 3.87513 45.4558 3.9792 45.4274 4.20763C45.4206 4.26304 45.4396 4.32522 45.4233 4.37523C45.3868 4.48606 45.334 4.59149 45.2893 4.69962C45.2406 4.60636 45.2014 4.50499 45.1391 4.42118C45.0728 4.33333 44.993 4.21033 44.9037 4.19546C44.6953 4.16167 44.472 4.15627 44.2663 4.19546C44.1824 4.21168 44.0688 4.37253 44.0701 4.46579C44.0728 4.62123 44.1581 4.77531 44.2095 4.9294C44.3407 4.87128 44.4747 4.82127 44.6006 4.75368C44.6682 4.71719 44.721 4.65231 44.7805 4.5996C44.8171 4.67259 44.878 4.74287 44.8847 4.81856C44.8996 4.99698 44.8983 5.17945 44.8847 5.35786C44.8793 5.42274 44.8198 5.48356 44.786 5.54574C44.7305 5.50384 44.6357 5.4687 44.6263 5.41733C44.5803 5.16728 44.3759 5.16728 44.2393 5.22946C44.1432 5.27271 44.085 5.46059 44.0647 5.59305C44.0376 5.76335 44.0715 5.9269 44.3042 5.96474C44.4395 5.98637 44.5667 6.06071 44.698 6.11207C44.5491 6.15397 44.403 6.21885 44.2514 6.23101C43.993 6.24994 43.7332 6.24453 43.4747 6.23101C43.4057 6.22696 43.3407 6.15127 43.2744 6.10801C43.3367 6.06071 43.4016 5.9715 43.4612 5.9742C43.7521 5.98772 43.7927 5.82417 43.7859 5.58764C43.7751 5.24973 43.7778 4.91183 43.7859 4.57392C43.7913 4.34279 43.7507 4.17384 43.4652 4.16978C43.403 4.16978 43.3407 4.08057 43.2785 4.03327C43.3543 3.99002 43.4287 3.91432 43.5072 3.91027C43.7886 3.8954 44.0701 3.90486 44.3529 3.90486H44.3516Z" fill="white"/>
<path d="M22.4809 4.0048L22.78 3.91289C22.8057 4.01427 22.8382 4.11564 22.8544 4.21836C22.8666 4.2954 22.868 4.37785 22.8544 4.45354C22.8395 4.53329 22.8016 4.60763 22.7732 4.68467C22.7015 4.63331 22.619 4.59141 22.5594 4.52924C22.3388 4.2954 22.1129 4.09266 21.7516 4.17105C21.4187 4.24269 21.2671 4.49544 21.19 4.77658C21.0749 5.19694 21.1819 5.57945 21.5161 5.87816C21.7597 6.09577 22.3619 5.97818 22.688 5.62676C22.7448 5.71056 22.8531 5.8322 22.8368 5.85248C22.7259 5.98764 22.6068 6.14578 22.4552 6.21336C21.9532 6.43368 21.305 6.21336 20.991 5.74976C20.5188 5.05096 21.0384 3.88721 21.8706 3.82369C22.0641 3.80882 22.2685 3.93857 22.4823 4.00616L22.4809 4.0048Z" fill="white"/>
<path d="M26.5608 42.9278C26.3307 42.6412 26.3416 42.0695 26.5432 41.8748C26.5608 41.887 26.5906 41.8965 26.5946 41.9127C26.6514 42.1425 26.8247 42.3087 27.0222 42.2195C27.1359 42.1681 27.1792 41.8924 27.1941 41.7126C27.2144 41.4612 27.0087 41.4437 26.8192 41.4437C26.7178 41.4437 26.6163 41.4437 26.5148 41.4477C26.282 41.4545 26.0926 41.5072 26.0601 41.791C26.0533 41.8505 25.9681 41.9005 25.9194 41.9546C25.8734 41.8884 25.7976 41.8248 25.7881 41.7532C25.7204 41.2774 25.8111 41.1815 26.2983 41.1828C26.7259 41.1842 27.1535 41.1787 27.5811 41.1896C27.7002 41.1923 27.8166 41.245 27.9803 41.2882C27.6393 41.5378 27.4697 41.8699 27.4715 42.2844C27.4715 42.3182 27.4715 42.352 27.4715 42.3858C27.4733 42.8048 27.6434 43.1521 27.9817 43.4279C27.8423 43.4576 27.7448 43.4954 27.6461 43.4968C27.163 43.5035 26.6785 43.4846 26.1954 43.5063C25.9058 43.5198 25.7664 43.4387 25.8057 43.1318C25.8179 43.0318 25.7922 42.9264 25.8165 42.8304C25.8314 42.7723 25.9058 42.7291 25.9532 42.6791C25.9978 42.721 26.0642 42.7561 26.0817 42.8075C26.2387 43.2494 26.255 43.2508 26.7949 43.2535C27.0939 43.2548 27.2563 43.1521 27.1981 42.8412C27.1765 42.7264 27.0912 42.6236 27.0344 42.5142C26.8991 42.5871 26.7584 42.6534 26.6298 42.7372C26.5946 42.7602 26.5919 42.8331 26.5608 42.9264V42.9278Z" fill="white"/>
<path d="M34.2878 36.9237C33.8764 36.9777 33.7614 37.2224 33.7979 37.5927C33.8222 37.8374 33.8114 38.0888 33.7979 38.3348C33.7857 38.574 33.8209 38.7565 34.1132 38.7848C34.1781 38.7916 34.2377 38.8686 34.2986 38.9146L34.2742 38.997C34.1809 39.0106 34.0861 39.0362 33.9928 39.0376C33.4853 39.0417 32.9778 39.0295 32.4717 39.0471C32.22 39.0552 32.1104 38.9768 32.147 38.7213C32.1551 38.6659 32.1361 38.6051 32.151 38.5537C32.1835 38.4429 32.2309 38.3348 32.2728 38.2266C32.3242 38.3307 32.3648 38.4402 32.4284 38.5348C32.4839 38.6172 32.557 38.7348 32.6341 38.7456C32.8669 38.7767 33.1064 38.7781 33.3405 38.7592C33.4068 38.7538 33.5151 38.6348 33.5151 38.5672C33.5164 38.4077 33.4812 38.2415 33.4231 38.0928C33.4122 38.0644 33.2052 38.0725 33.1253 38.1212C33.0211 38.1861 32.9535 38.3091 32.8709 38.4064C32.7153 38.2347 32.6991 37.7346 32.852 37.4427C32.8723 37.4481 32.9048 37.4494 32.9102 37.4616C32.9995 37.6914 33.1944 37.9239 33.3919 37.7644C33.5272 37.6549 33.4691 37.3021 33.4853 37.0575C33.4867 37.0331 33.4 36.9818 33.3527 36.9804C33.128 36.9737 32.8926 36.9439 32.6815 36.998C32.5692 37.0264 32.4974 37.2102 32.4041 37.321C32.3554 37.3792 32.2985 37.4332 32.2457 37.4886C32.2079 37.4292 32.147 37.3737 32.1348 37.3102C32.1158 37.2129 32.1361 37.1075 32.1294 37.0075C32.1145 36.779 32.1984 36.6939 32.442 36.7033C32.9481 36.725 33.4569 36.706 33.963 36.7169C34.0739 36.7196 34.1836 36.775 34.2932 36.8061L34.2837 36.9264L34.2878 36.9237Z" fill="white"/>
<path d="M21.3822 47.8017C21.416 47.9206 21.4769 48.0382 21.4782 48.1571C21.4796 48.3896 21.577 48.4869 21.8057 48.4653C21.895 48.4572 21.9857 48.4653 22.075 48.464C22.5392 48.4626 22.5676 48.445 22.5446 47.9963C22.5378 47.8733 22.439 47.7544 22.3822 47.6341C22.255 47.703 22.1237 47.7652 22.0019 47.8422C21.9546 47.8733 21.9316 47.9409 21.8937 47.9963C21.6961 47.7625 21.6866 47.2867 21.8734 47.0326C21.9126 47.0677 21.9505 47.1029 21.9898 47.134C22.1075 47.2232 22.2198 47.3232 22.3497 47.3881C22.3768 47.4016 22.5229 47.2826 22.5216 47.2272C22.5162 47.0475 22.4986 46.8555 22.4241 46.696C22.3903 46.6231 22.2076 46.6258 22.1007 46.5771C22.0331 46.546 21.9789 46.4825 21.9194 46.4338C21.9789 46.3852 22.0358 46.296 22.0967 46.2946C22.4444 46.2824 22.7936 46.2824 23.1427 46.296C23.2104 46.2987 23.2753 46.3798 23.3416 46.4244C23.2821 46.4757 23.2266 46.5609 23.1603 46.5703C22.9086 46.6095 22.8274 46.7488 22.8369 46.992C22.8504 47.3624 22.8436 47.7341 22.8409 48.1044C22.8396 48.3247 22.8937 48.4748 23.1616 48.4694C23.2293 48.468 23.2997 48.5626 23.3687 48.6126C23.2983 48.6518 23.2293 48.7235 23.1576 48.7248C22.573 48.7356 21.9871 48.737 21.4025 48.7275C21.3362 48.7275 21.2171 48.6491 21.213 48.6005C21.1941 48.3477 21.2035 48.0936 21.2035 47.8395L21.3795 47.8003L21.3822 47.8017Z" fill="white"/>
<path d="M34.2186 47.5612C34.1347 47.818 34.0982 48.1045 33.9561 48.3235C33.5163 49.006 32.4324 48.8628 32.136 48.0748C31.9073 47.4679 31.975 46.9894 32.3877 46.5677C32.6976 46.2514 33.0603 46.1555 33.4595 46.3069C33.8871 46.469 34.1577 46.7772 34.151 47.2692C34.1496 47.3584 34.151 47.449 34.151 47.5382L34.2186 47.5598V47.5612ZM33.8668 47.4855C33.8668 47.4179 33.8682 47.3517 33.8668 47.2841C33.8573 46.9272 33.6016 46.7299 33.3282 46.6272C33.1537 46.561 32.8451 46.5866 32.7247 46.7042C32.542 46.8826 32.4121 47.1638 32.3661 47.4206C32.2686 47.9748 32.7247 48.5086 33.1997 48.464C33.5786 48.4289 33.8709 48.0004 33.8668 47.4868V47.4855Z" fill="white"/>
<path d="M38.8494 42.8399C38.6586 42.5831 38.6626 42.1479 38.8358 41.9343C38.8615 41.9533 38.8859 41.9749 38.913 41.9911C39.0577 42.0776 39.2025 42.1614 39.3487 42.2466C39.4042 42.1249 39.48 42.0087 39.5124 41.8816C39.5693 41.6505 39.4272 41.5289 39.2269 41.4599C39.1362 41.4288 39.0456 41.4045 38.94 41.2937C39.0185 41.2572 39.0956 41.1909 39.1768 41.1869C39.48 41.1747 39.7844 41.1747 40.0875 41.1909C40.1525 41.1937 40.2147 41.2788 40.2783 41.3261C40.2256 41.368 40.1782 41.4369 40.1187 41.4491C39.8507 41.5086 39.7574 41.6654 39.7763 41.9343C39.7966 42.2249 39.798 42.5196 39.7763 42.8102C39.7574 43.0589 39.8521 43.1859 40.0862 43.2468C40.1552 43.2643 40.2107 43.34 40.2716 43.3887C40.2012 43.4252 40.1308 43.4928 40.0605 43.4941C39.5314 43.5049 39.0023 43.4941 38.4745 43.5063C38.2052 43.513 38.1051 43.4049 38.143 43.1454C38.1524 43.0792 38.1281 43.0062 38.147 42.944C38.1755 42.8494 38.2269 42.7602 38.2688 42.6696C38.3189 42.7507 38.4109 42.8305 38.4109 42.9116C38.4109 43.14 38.5571 43.2035 38.7303 43.2305C38.8737 43.2535 39.0239 43.2265 39.1674 43.2454C39.4421 43.2806 39.5503 43.1522 39.5124 42.8994C39.4921 42.7683 39.4258 42.6439 39.3798 42.5169C39.235 42.5804 39.0889 42.6399 38.9468 42.7088C38.913 42.725 38.8954 42.7764 38.8507 42.8372L38.8494 42.8399Z" fill="white"/>
<path d="M44.1918 48.5923C44.0592 48.6356 43.9415 48.6734 43.8238 48.7112C43.8021 48.5842 43.7683 48.4571 43.7629 48.3301C43.7575 48.1895 43.7778 48.0489 43.7859 47.9084L43.8711 47.8651C43.9713 47.9665 44.0782 48.0611 44.1675 48.1719C44.4882 48.5653 44.8251 48.5815 45.1729 48.2125C45.4233 47.9476 45.4273 47.0906 45.1797 46.8298C44.8454 46.477 44.5626 46.4581 44.1323 46.7338C44.0376 46.7946 43.9023 46.7906 43.7859 46.8176C43.8454 46.7027 43.8779 46.5513 43.9713 46.4797C44.5762 46.0161 45.3028 46.2783 45.6317 46.969C45.8698 47.4718 45.7115 47.9043 45.541 48.3166C45.3543 48.7694 44.564 48.8788 44.1918 48.5923V48.5923Z" fill="white"/>
</g>
<defs>
<clipPath id="clip0_109_491">
<rect width="69.1695" height="53" fill="white"/>
</clipPath>
</defs>
</svg>
