<svg width="44" height="34" viewBox="0 0 44 34" fill="none" xmlns="http://www.w3.org/2000/svg">
<rect width="43.2704" height="34" rx="3.5" fill="#4A5C75"/>
<path fill-rule="evenodd" clip-rule="evenodd" d="M26.9965 20.8127L32.5366 26.232C32.7385 26.4295 32.7385 26.7488 32.5366 26.9462L32.1115 27.3621C31.9096 27.5596 31.5832 27.5596 31.3814 27.3621L25.8412 21.9428C25.7467 21.8462 25.6909 21.7202 25.6909 21.5857V21.1572C24.0976 22.594 21.9717 23.4762 19.6311 23.4762C14.6965 23.4762 10.6981 19.5651 10.6981 14.7381C10.6981 9.91114 14.6965 6 19.6311 6C24.5657 6 28.564 9.91114 28.564 14.7381C28.564 17.0276 27.6622 19.1071 26.1891 20.6657H26.6314C26.7689 20.6657 26.8977 20.7161 26.9965 20.8127ZM12.0724 14.7381C12.0724 18.8257 15.4523 22.1319 19.6311 22.1319C23.8098 22.1319 27.1897 18.8257 27.1897 14.7381C27.1897 10.6505 23.8098 7.34432 19.6311 7.34432C15.4523 7.34432 12.0724 10.6505 12.0724 14.7381Z" fill="white"/>
</svg>
